<svg xmlns="http://www.w3.org/2000/svg" width="200" height="200"><defs><linearGradient id="a" x1="50%" x2="50%" y1="0%" y2="99.913%"><stop offset="0%" stop-color="#6A21A7"/><stop offset="99.992%" stop-color="#A721A0"/></linearGradient></defs><path fill="url(#a)" fill-rule="evenodd" d="m140.67 36.75 6.12 22.5a6 6 0 0 1-4.259 7.376l-69.212 18.27q-.166.048-.335.088L61.56 87.997l85.439.001a6 6 0 0 1 6 6V160c0 6.627-5.373 12-12 12H20.997c-6.628 0-12-5.373-12-12V93.998q0-.173.009-.343L3.403 73.052a11.82 11.82 0 0 1 1.217-9.034 11.8 11.8 0 0 1 7.233-5.47l114.22-30.135c6.311-1.7 12.814 1.996 14.596 8.336m.33 63.248H20.997V160H141zM34.918 64.872l-19.876 5.245 4.504 16.559 36.46-9.626zm44.177-11.655-27.706 7.31 21.087 12.177 27.707-7.314zm50.028-13.198-33.553 8.85 21.084 12.174 16.969-4.477z" transform="translate(22)"/></svg>