<svg xmlns="http://www.w3.org/2000/svg" viewBox="0 0 121 19"><g fill="none"><path fill="#020712" d="M32.233 17q-1.85 0-3.26-.858-1.408-.86-2.19-2.404Q26 12.193 26 10.153q0-2.038.782-3.582t2.192-2.402 3.26-.858q1.51 0 2.709.577A5.2 5.2 0 0 1 36.91 5.52q.771 1.054.96 2.474h-2.859a2.43 2.43 0 0 0-.898-1.617q-.763-.62-1.88-.62-1.057 0-1.846.548-.79.549-1.216 1.532-.426.984-.426 2.318 0 1.322.426 2.312t1.216 1.539q.788.548 1.845.548 1.119 0 1.88-.622.764-.62.9-1.615h2.858q-.189 1.416-.96 2.472a5.2 5.2 0 0 1-1.968 1.634q-1.197.577-2.71.577m7.292-.249v-9.81h2.68v9.81zm1.34-10.775a1.46 1.46 0 0 1-1.067-.433 1.43 1.43 0 0 1-.439-1.055q0-.621.439-1.055A1.46 1.46 0 0 1 40.865 3q.629 0 1.067.433.438.434.438 1.055t-.438 1.055a1.46 1.46 0 0 1-1.067.433m3.841 10.775v-9.81h2.6v1.452h.067a3 3 0 0 1 1.184-1.212q.755-.42 1.76-.42 1.081 0 1.9.526.82.527 1.283 1.454t.463 2.134v5.876h-2.68v-5.36q0-1.033-.518-1.624-.518-.593-1.43-.593-.9 0-1.425.593-.524.592-.524 1.625v5.36zm15.993.197q-1.415 0-2.511-.63a4.44 4.44 0 0 1-1.717-1.782q-.622-1.153-.622-2.723 0-1.553.607-2.69a4.36 4.36 0 0 1 1.677-1.757q1.07-.622 2.467-.622 1.304 0 2.339.57 1.035.569 1.641 1.662.606 1.095.605 2.654v.92h-6.71q.146 1.071.737 1.659.591.587 1.47.587.696 0 1.144-.319a1.6 1.6 0 0 0 .613-.888h2.74a3.8 3.8 0 0 1-.82 1.8 4.14 4.14 0 0 1-1.574 1.156q-.941.403-2.086.403m-2.167-6.204h4.036q-.128-.915-.656-1.385t-1.302-.47-1.324.477-.754 1.378m10.236 6.007-2.908-9.81h2.713l1.71 6.422h.067l2.038-6.422h2.594l2.011 6.422h.066l1.737-6.422h2.68l-2.908 9.81h-2.852l-2.015-6.154h-.066L71.62 16.75zm16.682.18q-1.522 0-2.447-.843-.924-.844-.924-2.214 0-1.44.987-2.228t2.774-.788h2.386v-.392q0-.74-.439-1.158-.438-.418-1.212-.418-.642 0-1.082.296t-.583.848h-2.713q.309-1.58 1.45-2.434 1.14-.856 2.924-.856 1.998 0 3.107 1.006 1.108 1.005 1.108 2.837v6.164h-2.481v-1.37h-.066q-.407.758-1.122 1.155-.714.395-1.667.395m.575-2.06q.63 0 1.125-.273.496-.273.786-.74t.29-1.06v-.134h-2.257q-.639 0-.987.29-.35.292-.35.789 0 .523.378.826.377.302 1.015.302m9.966 1.88q-1.046 0-1.618-.534-.573-.535-.573-1.63V9.06h-1.538V6.94h1.568V3.998h2.62v2.944h2.032V9.06H96.48v5.572h2.207v2.12zm8.658.197q-1.386 0-2.48-.63a4.5 4.5 0 0 1-1.722-1.774q-.63-1.144-.629-2.698 0-1.57.629-2.714a4.44 4.44 0 0 1 1.722-1.766q1.094-.622 2.48-.622 1.164 0 2.12.427a4.1 4.1 0 0 1 1.592 1.243q.635.816.817 2.013h-2.746q-.185-.657-.66-.99-.475-.33-1.123-.331a1.91 1.91 0 0 0-1.552.734q-.6.735-.599 2.006 0 1.255.6 1.998.598.742 1.55.742.699 0 1.197-.353t.683-1.118h2.686q-.165 1.268-.802 2.12-.636.849-1.608 1.281-.971.432-2.155.432m6.094-.197V3.016h2.68v5.265h.066a3.1 3.1 0 0 1 1.171-1.126q.728-.398 1.707-.398 1.066 0 1.886.525t1.284 1.45q.463.923.463 2.14v5.88h-2.68v-5.374q0-1.04-.518-1.627-.518-.586-1.43-.587-.9 0-1.425.587-.524.588-.524 1.627v5.373z"/><g stroke="#6A21A7" stroke-linecap="round" stroke-linejoin="round" stroke-width="1.5"><path d="M1.75 8.5h16.5v8.25a.75.75 0 0 1-.75.75h-15a.75.75 0 0 1-.75-.75zm.04 0L17.5 4.352l-.765-2.813a.74.74 0 0 0-.906-.514L1.548 4.793a.73.73 0 0 0-.523.894zM4.347 4.055l4.481 2.587M9.869 2.598l4.481 2.586"/></g></g></svg>
