<svg xmlns="http://www.w3.org/2000/svg" xmlns:xlink="http://www.w3.org/1999/xlink" width="180" height="180"><defs><path id="a" d="M0 0h180v180H0z"/></defs><g fill="none" fill-rule="evenodd"><use xlink:href="#a" fill="#FFF"/><path fill="#000" d="m152.67 26.75 6.12 22.5a6 6 0 0 1-4.259 7.376l-69.212 18.27q-.166.048-.335.088L73.56 77.997l85.439.001a6 6 0 0 1 6 6V150c0 6.627-5.373 12-12 12H32.997c-6.628 0-12-5.373-12-12V83.998q0-.173.009-.343l-5.603-20.603a11.82 11.82 0 0 1 1.217-9.034 11.8 11.8 0 0 1 7.233-5.47l114.22-30.135c6.311-1.7 12.814 1.996 14.596 8.336m.33 63.248H32.997V150H153zM46.918 54.872l-19.876 5.245 4.504 16.559 36.46-9.626zm44.177-11.655-27.706 7.31 21.087 12.177 27.707-7.314zm50.028-13.198-33.553 8.85 21.084 12.174 16.969-4.477z"/></g></svg>